<svg xmlns="http://www.w3.org/2000/svg" viewBox="0 0 512 511"><path fill="#f4ff00" d="M503.73 185.28L327.2 8.75c-10.996-10.996-28.895-10.996-39.9 0l-1.762 1.762c-11 11-11 28.895 0 39.895l176.53 176.53c11.027 11.023 28.867 11.023 39.9 0l1.762-1.762c11.023-11.023 11.027-28.867 0-39.9zm-10.605 29.285l-1.762 1.758a13.2 13.2 0 0 1-18.68 0l-176.53-176.53a13.21 13.21 0 0 1 0-18.68l1.762-1.758c5.148-5.148 13.53-5.152 18.68 0l176.53 176.53a13.23 13.23 0 0 1 0 18.68zM307.22 287.86l-7.38 13.062c32.98 18.625 53.47 53.7 53.47 91.527 0 57.918-47.113 105.03-105.03 105.03-53.945 0-99.902-42.035-104.63-95.7-1.6-18.277 1.555-36.672 9.152-53.184 6.586-14.297 14.652-23.023 21.312-30.566 60.03-69.78 102.64-154.1 123.2-243.8l-14.617-3.352c-21.188 92.38-66.57 176.9-121.24 238.8-6.394 7.227-15.148 17.12-22.297 32.645-8.687 18.88-12.3 39.895-10.47 60.77 5.414 61.52 57.062 109.4 119.57 109.4 66.188 0 120.03-53.848 120.03-120.04.004-43.23-23.406-83.305-61.1-104.6zM199.7 333.9c-17.46 14.5-27.477 35.844-27.477 58.562 0 41.93 34.113 76.04 76.05 76.04 41.93 0 76.04-34.1 76.04-76.04 0-36.465-25.957-67.88-61.727-74.7l-2.8 14.734c28.703 5.473 49.535 30.7 49.535 59.965 0 33.656-27.383 61.04-61.04 61.04-33.664 0-61.05-27.383-61.05-61.04 0-18.242 8.04-35.38 22.094-47.047 66.9-56.164 147.2-96.152 232.28-115.64l-3.348-14.62c-87.375 20.012-169.88 61.082-238.55 118.74zM439.38 66.535l34.305-34.305 10.6 10.605L450 77.14zm-39.86-61.7h15v48.516h-15zm58.74 99.244h48.516v15H458.26zM113.3 413.57l-53.047 49.602-10.945-10.94 74.203-79.355-10.957-10.242L38.7 441.62l-4.285-4.28L.008 471.745v19.922l20.805 20.805h19.922l34.406-34.406-4.273-4.277 52.68-49.258zm-78.78 83.898h-7.492l-12.02-12.02v-7.492l19.406-19.406 19.512 19.512zM472.3 206.1l-34.32-34.32 10.605-10.6 34.32 34.32zm-41.395-41.395L420.3 154.1l10.605-10.6 10.595 10.6zm-17.676-17.68L402.6 136.42l10.6-10.605 10.605 10.605zM273.18 269.97l-7.574-12.945c31.164-18.227 64.078-33.656 97.832-45.863l5.102 14.105c-32.898 11.898-64.984 26.938-95.36 44.703zM377.85 222l-4.856-14.2 14.434-4.734 4.492 14.3-14.07 4.617zm23.516-7.492l-4.25-14.387 14.625-4.113 3.88 14.488-14.254 4.012zM248.27 490.5v-15c28.98 0 55.414-14.777 70.7-39.523l12.758 7.887c-18.05 29.203-49.254 46.637-83.47 46.637zm88.645-56.14l-13.55-6.434c1.96-4.137 3.6-8.46 4.836-12.855l14.43 4.1c-1.473 5.2-3.394 10.312-5.715 15.2zM345 408.607l-14.797-2.46a83.5 83.5 0 0 0 1.13-13.695h15a98.72 98.72 0 0 1-1.332 16.156z"/></svg>