<svg xmlns="http://www.w3.org/2000/svg" viewBox="0 0 465.072 465.072"><path fill="#f4ff00" d="M85.266 308.804c-2.93-2.927-7.677-2.93-10.607 0a7.5 7.5 0 0 0 0 10.607l70.997 70.998a7.48 7.48 0 0 0 10.608 0 7.5 7.5 0 0 0 0-10.607l-70.998-70.998zM464.423 53.43c.2-.866 4.7-21.407-13.333-39.452S412.505.44 411.638.645a7.5 7.5 0 0 0-3.608 2.002l-2.88 2.88-1.768-1.768a7.5 7.5 0 0 0-10.606.001 7.5 7.5 0 0 0 .001 10.606l1.767 1.767-7.986 7.986-1.768-1.768a7.5 7.5 0 0 0-10.605 10.607l1.767 1.767-7.986 7.986-1.768-1.768c-2.93-2.928-7.678-2.928-10.607 0a7.5 7.5 0 0 0 0 10.607l3.25 3.25-11.22 22.438-80.766 77.747c-16.543-12.764-49.225-31.294-83.268-13.07-22.692 12.115-28.734 27.553-34.064 41.173-4.247 10.853-7.915 20.225-19.394 28.73-5.34 3.952-15.196 5.917-26.6 8.192-28.515 5.684-67.567 13.468-93.23 60.904-30.572 56.524 14.76 111.313 35.693 132.27l5.94 5.93c15.912 15.9 51.405 45.96 92.376 45.96 12.9-.001 26.323-2.976 39.858-10.3 47.438-25.66 55.223-64.704 60.906-93.212 2.275-11.4 4.24-21.266 8.2-26.603 8.504-11.482 17.878-15.152 28.732-19.4 13.623-5.333 29.064-11.378 41.17-34.063 18.224-34.048-.3-66.73-13.078-83.274l77.735-80.754 22.46-11.23 3.244 3.243a7.48 7.48 0 0 0 5.303 2.196c1.92 0 3.84-.732 5.304-2.197a7.5 7.5 0 0 0-.001-10.606l-1.767-1.767 7.986-7.986 1.767 1.767a7.48 7.48 0 0 0 10.608 0 7.5 7.5 0 0 0 0-10.607l-1.767-1.767 7.985-7.985 1.767 1.767a7.48 7.48 0 0 0 10.608 0 7.5 7.5 0 0 0 0-10.607l-1.767-1.767 2.88-2.88a7.5 7.5 0 0 0 2.002-3.608zM309.925 274.423c-9.5 17.807-20.58 22.145-33.407 27.166-11.365 4.45-24.246 9.492-35.32 24.443-5.95 8.037-8.22 19.417-10.846 32.596-5.387 27.018-12.1 60.642-53.334 82.952-47.683 25.804-95.95-14.535-114.48-33.064l-5.968-5.957c-18.535-18.555-58.86-66.855-33.1-114.507 22.3-41.24 55.942-47.943 82.968-53.33 13.18-2.627 24.564-4.896 32.605-10.85 14.947-11.077 19.987-23.956 24.435-35.318 5.02-12.825 9.354-23.9 27.167-33.4 25.473-13.636 51.046-.133 65.255 10.375l-48.6 46.794a49.1 49.1 0 0 0-2.14-.052c-12.778 0-24.78 4.965-33.788 13.973-9.008 9-13.968 20.968-13.965 33.73s4.967 24.738 13.968 33.713c8.998 9 20.983 13.974 33.75 13.974s24.746-4.964 33.716-13.96c9-8.963 13.967-20.926 13.982-33.687a49.52 49.52 0 0 0-.052-2.251l46.775-48.592c10.5 14.208 24.018 39.783 10.38 65.262zm-100.632-46.896a32.38 32.38 0 0 1 18.959 9.252 32.47 32.47 0 0 1 9.297 18.982c.008.076.018.152.028.228a33.3 33.3 0 0 1 .243 3.997c-.01 8.748-3.408 16.942-9.585 23.094-6.153 6.17-14.362 9.57-23.113 9.57a32.47 32.47 0 0 1-23.146-9.584c-6.17-6.152-9.57-14.358-9.57-23.105s3.394-16.954 9.565-23.113c6.182-6.18 14.416-9.585 23.188-9.585 1.318 0 2.62.086 3.9.238l.225.027zm39.367 12.865a47.67 47.67 0 0 0-9.805-14.223 47.52 47.52 0 0 0-14.181-9.76L353.647 92.256 372.8 111.43 248.66 240.4zM450.04 48.204l-6.4 6.4c-.007.007-.014.012-.02.018s-.012.014-.018.02l-18.554 18.554c-.007.007-.014.012-.02.018s-.012.014-.018.02l-17.73 17.73-22.502 11.25-21.913-21.938L374.13 57.76l42.73-42.73c4.118-.302 14.2.116 23.625 9.553 9.46 9.46 9.858 19.56 9.558 23.62z"/></svg>