<svg xmlns="http://www.w3.org/2000/svg" viewBox="-52 0 512 512.001"><path  d="M124.484 152.754l48.813 17.64.035 13.332 15-.04-.062-23.836-44.78-16.184 8.715-25.242 49.742 17.883 21.3 29.215h27.855l12.223-18.54 42.742 2.336V172.2h-28.3l-.012 83.828 15 .004.008-68.828 115.746-.008L381.607 75.67 356.27 62.525l-33.9 7.336 15.176 64.832-23.8.023-46.797-2.56v-9.223l12.746 1.6 8.723-69.12C291.657 28.2 272.142 3.77 245.36.4c-26.008-3.297-49.2 14.05-54.625 38.273l-45.066-7.734-2.54 14.8 45.496 7.805-3.53 27.965 14.07 18.145v19.715L12.55 52.008 0 86.72l11.875 25.324zM340.44 81.3l13.72-2.97 14.47 7.504 20.844 86.363H321.08v-22.484l35.37-.035zM251.932 137l-8.906 13.508H230.88l-16.727-22.94v-11.305l37.78 4.77zm14.746-29.227l-46.8-5.914-19.102-24.855 2.64-20.94 68.32 11.715zm-23.2-92.5C261.964 17.61 275.4 34.275 273.6 52.888L205.535 41.22c4.125-16.625 20.18-28.184 37.934-25.934zM129.38 138.57L22.82 100.047l-6.598-14.07 5.336-14.762 116.527 42.125-8.707 25.23zm163.386 152.95v-15.484h-15.004v11.172h-89.168l-.2-83.52-15 .04c.152 60.367-.12-47.195.25 98.48.098 0-1.266-4.852 27.7 101.422l-49.035 39.684-44.184 34.172 22.457 29.262 27.7 3.645 23.97-18.2.145.18c7.207-5.844 4.508-3.715 11.8-9.262l-.152-.187 72.098-58.445-21.383-78.426h23.383l45.867 28.46-19.402 66.484-11.215 34.8 12.758 24.895 35.13 11.32 15.016-46.582.164.05c2.594-8.727 1.57-5.44 4.438-14.332l-.164-.05 31.082-104.582zM154.13 494.7l-15.43-2.027-9.574-12.477 26.63-20.6 17.03 20.922zm177.492-126.95l-59.184-36.723h-47.3l23.977 87.934-64.523 52.305-17.07-20.973 50.875-41.172-29.133-106.848 93.84.902 81.082 50.05-27.715 93.246-25.43-8.195zm.4 93.055l-10.4 32.305-14.94-4.816-7.086-13.832 7.04-21.844 25.398 8.188zm0 0"/><path  d="M214.906 256.53v-15.004H229.9v15.004zm25.004 0v-15.004h15v15.004zm0 0"/></svg>