<svg xmlns="http://www.w3.org/2000/svg" viewBox="0 0 512 512"><path fill="#f4ff00" d="M481.94 386.754v-30.06h-42.58v15.03h27.55v15.027H311.6v-15.027h112.72v-15.03h-92.68v-118.88L470.852 80.875c4.8-5.426 7.46-12.398 7.46-19.633a29.72 29.72 0 0 0-12.277-24.027 29.41 29.41 0 0 0-17.324-5.605c-8.516 0-16.617 3.664-22.238 10.047L393.766 78.8l11.28 9.93 32.707-37.152c2.766-3.145 6.762-4.945 10.957-4.945 3.074 0 6.023.953 8.527 2.762 3.84 2.773 6.043 7.1 6.043 11.84 0 3.555-1.305 6.984-3.672 9.66l-77.766 87.668-21.535-19.004 34.8-39.547-11.28-9.93-67.105 76.234H285.56V148.2a52.97 52.97 0 0 0 16.398-17.937h9.152c15.2 0 27.55-12.36 27.55-27.555V82.66C338.66 37.082 301.578 0 256 0s-82.66 37.082-82.66 82.66v20.04c0 15.195 12.36 27.555 27.55 27.555h9.152a52.97 52.97 0 0 0 16.398 17.938v19.27l-27.36 4.496 2.44 14.832 29.215-4.805a33.56 33.56 0 0 0 25.262 11.395c10.082 0 19.46-4.43 25.824-12.023h41.7l26.852-30.508 21.496 18.97-55.254 62.3v124.6h-20.04v30.06H215.42V356.7h-20.04V242.473h-15.76l-13.8 37.457-27.316-11.055 21.336-58.434a32.6 32.6 0 0 1 25.305-20.96l1.547-.258-2.437-14.828-1.547.254a47.65 47.65 0 0 0-36.984 30.637l-55.293 151.4H30.06v30.06H0V512h94.684v-15.03H15.03v-95.184h481.94v95.184H109.715V512H512V386.754zM293.574 91.03l-15.8-20.895h-57.2C225.75 55.56 239.672 45.1 256 45.1c20.72 0 37.574 16.852 37.574 37.57zm30.06 11.668c0 6.906-5.617 12.527-12.523 12.527h-3.566c.695-3.402 1.06-6.922 1.06-10.523l-.062-24.547h2.57a12.54 12.54 0 0 1 12.523 12.523zM256 15.03c32.012 0 58.88 22.36 65.855 52.277a27.45 27.45 0 0 0-10.746-2.18h-5.523C298.348 44.72 278.86 30.06 256 30.06s-42.348 14.66-49.586 35.07h-5.523a27.45 27.45 0 0 0-10.746 2.18C197.12 37.4 223.988 15.03 256 15.03zm-55.1 100.195c-6.906 0-12.523-5.62-12.523-12.527V92.68a12.54 12.54 0 0 1 12.523-12.523h2.57c-.04.832-.062 24.547-.062 24.547a52.39 52.39 0 0 0 1.06 10.523zm17.535-10.523V85.168h51.87l22.027 29.137c-4.25 16.082-18.922 27.973-36.324 27.973-20.72 0-37.574-16.855-37.574-37.574zM256 178.348c-5.707 0-10.996-2.562-14.527-6.934V155.25a52.47 52.47 0 0 0 29.055 0v16.164c-3.53 4.37-8.82 6.934-14.527 6.934zm-75.648 105.617v72.73h-26.797zM133.344 283l27.277 11.04-23.082 62.656h-31.1zM45.1 371.727h155.3v15.027H45.1zm128.24 50.097v55.105h165.32v-55.105zm100.195 15.027v25.05h-35.07v-25.05zm-85.168 0h35.07v25.05h-35.07zm135.266 25.05h-35.07v-25.05h35.07zm0 0"/><path fill="#f4ff00" d="M143.28 471.922h-15.03v-15.03h15.03zm0-30.06h-15.03v-15.03h15.03zm240.47 30.06h-15.03v-15.03h15.03zm0-30.06h-15.03v-15.03h15.03zm-83.164-127.75H285.56v-15.027h15.027zm0-30.06H285.56v-40.078h15.027zm0 0"/></svg>