<svg xmlns="http://www.w3.org/2000/svg" viewBox="0 0 58.365 58.365"><path d="M57.863 26.632l-8.68-8.06V5.365h-10v3.92L29.182 0 .502 26.632a1 1 0 0 0-.052 1.414c.375.404 1.008.427 1.414.052l3.32-3.082v33.35h48v-33.35l3.32 3.082c.192.18.437.267.68.267.27 0 .536-.107.732-.32a1 1 0 0 0-.052-1.413zM41.182 7.365h6v9.35l-6-5.57V7.365zm-18 49V35.302a.94.94 0 0 1 .937-.937h10.126a.94.94 0 0 1 .937.937v21.063h-12zm28 0h-14V35.302a2.94 2.94 0 0 0-2.937-2.937H24.12a2.94 2.94 0 0 0-2.937 2.937v21.063h-14V23.158l22-20.43 22 20.428v33.208z"/></svg>