<svg xmlns="http://www.w3.org/2000/svg" viewBox="0 0 470 470"><path  d="M467.804 142.636L327.365 2.196c-2.01-2.008-4.983-2.7-7.678-1.81s-4.65 3.246-5.052 6.06l-18.5 130.143-74.6 74.6-15.863-15.863 6.263-6.263a7.5 7.5 0 0 0-10.607-10.605l-23.132 23.133a7.5 7.5 0 0 0 .001 10.606c1.464 1.464 3.384 2.196 5.303 2.196s3.84-.732 5.304-2.197l6.262-6.262 15.862 15.862-38.27 38.27-15.862-15.862 6.263-6.263a7.5 7.5 0 0 0 0-10.607c-2.93-2.928-7.678-2.928-10.607 0l-23.133 23.133a7.5 7.5 0 0 0 0 10.607 7.48 7.48 0 0 0 10.608 0l6.263-6.263 15.862 15.862-38.27 38.27-15.862-15.862 6.263-6.263a7.5 7.5 0 0 0 0-10.607c-2.93-2.928-7.678-2.928-10.607 0L80.45 299.346a7.5 7.5 0 0 0 0 10.607 7.48 7.48 0 0 0 10.608 0l6.263-6.263 15.862 15.862-98.594 98.593-1.782-1.782c-2.93-2.928-7.678-2.928-10.607 0a7.5 7.5 0 0 0 0 10.607l40.832 40.832a7.48 7.48 0 0 0 10.608 0 7.5 7.5 0 0 0 0-10.607l-1.782-1.782 48.904-48.904c4.355 10.91 10.896 20.878 19.302 29.283 16.443 16.444 38.306 25.5 61.56 25.5s45.117-9.056 61.562-25.5l94.604-94.604c16.444-16.443 25.5-38.306 25.5-61.56s-9.056-45.117-25.5-61.562c-10.723-10.722-23.573-18.048-37.202-21.996-13.275-3.845-27.29-4.483-40.808-1.902l48.745-48.745c1.148-1.15 1.894-2.64 2.122-4.25l16.73-117.756 119.2 119.208-117.756 16.73a7.51 7.51 0 0 0-4.249 2.122l-11.826 11.826c-2.928 2.93-2.928 7.675-.002 10.605 2.932 2.93 7.68 2.93 10.6.003l10.056-10.057 130.143-18.5a7.5 7.5 0 0 0 6.06-5.052c.898-2.695.197-5.667-1.812-7.677zM181.62 446.294c-19.248 0-37.344-7.495-50.954-21.106a71.91 71.91 0 0 1-18.132-30.453l19.76-19.76c.184 12.39 4.993 24.726 14.427 34.16 19.244 19.24 50.555 19.242 69.8-.001l94.604-94.604c19.243-19.244 19.243-50.557.001-69.8s-50.557-19.245-69.802 0L76.602 409.453 60.548 393.4 225.27 228.676c28.096-28.098 73.813-28.098 101.908 0 13.6 13.6 21.106 31.706 21.106 50.954s-7.495 37.344-21.106 50.953l-94.604 94.604c-13.61 13.61-31.707 21.107-50.955 21.107zm-156.427-17.54l24.748-24.75 16.054 16.054-24.748 24.748-16.054-16.053zm132.135-78.813l94.604-94.604c13.394-13.396 35.19-13.397 48.587 0s13.395 35.2-.001 48.586l-94.603 94.604c-13.397 13.396-35.193 13.397-48.587.001s-13.396-35.192 0-48.587z"/></svg>