<svg xmlns="http://www.w3.org/2000/svg" viewBox="-96 0 511 511.999" ><path  d="M13.66 391.04l18.707 18.707c17.156 17.156 38.387 30.277 61.402 37.95a127.73 127.73 0 0 1 49.469 30.496l26.78 28.988c5.848 6.332 15.84 6.45 21.832.215L316.18 378.066a15 15 0 0 0 .418-20.336l-24.664-27.828c-13.875-13.88-24.492-31.055-30.7-49.676-6.027-18.078-15.43-35.047-27.492-49.812-15.27-47.926-12.34-99.496 8.32-145.418 3.367-7.484.098-16.28-7.34-19.75-11.312-5.273-23.332-7.305-35.332-6.125.39-2.637.61-5.355.61-8.164C200.004 22.383 178.863 0 151.88 0c-14.465 0-25.348 6.258-33.125 14.36C110.977 6.258 100.1 0 85.63 0 58.64 0 37.504 22.383 37.504 50.957c0 12.73 4.316 23.793 10.992 33.77-4.945 2.18-9.578 5.28-13.625 9.324-17.586 17.586-17.6 46.05 0 63.64l33.64 33.64c-4.496 2.14-8.707 5.07-12.426 8.79-8.5 8.5-13.18 19.797-13.18 31.816 0 7.973 2.066 15.617 5.934 22.348a44.82 44.82 0 0 0-13.969 9.473c-14.785 14.785-17.043 37.102-7.246 54.168-5.074 2.184-9.828 5.332-13.965 9.473-17.547 17.547-17.547 46.094 0 63.64zM208.137 88.863c-11.902 32.746-16.262 67.488-12.98 101.832l-45.152-45.152c3.617-15.96 11.246-30.21 21.453-40.508.05-.047.105-.086.156-.137 10.305-9.816 22.262-16.852 36.523-16.035zM85.63 30c13.043 0 18.277 16.43 18.68 17.762 1.727 6.54 7.586 11.008 14.355 11.06 6.78.02 12.73-4.566 14.543-11.105.05-.18 5.28-17.715 18.672-17.715 11.898 0 18.125 10.543 18.125 20.957 0 9.71-5.887 19.648-19.086 32.22-8.805 8.387-18.578 22.496-24.832 38.453-.102-.105-28.207-28.27-28.31-28.36C75.707 74.137 67.5 62.668 67.5 50.957 67.504 40.543 73.727 30 85.63 30zM56.086 136.48c-5.863-5.863-5.863-15.352 0-21.215 5.848-5.848 15.367-5.848 21.215 0l124.773 124.777c13.88 13.875 24.496 31.055 30.7 49.672a157.9 157.9 0 0 0 37.617 61.066l14.574 16.47-103.71 107.883-16.598-17.953c-17.152-17.152-38.387-30.273-61.402-37.945a127.75 127.75 0 0 1-49.672-30.703l-18.71-18.707c-5.848-5.848-5.848-15.367 0-21.215a15.02 15.02 0 0 1 21.211 0l22.355 22.242c5.914 4.824 14.605 4.44 20.074-1.027 5.86-5.86 5.86-15.355 0-21.215l-42.426-42.426c-5.863-5.863-5.863-15.352 0-21.215 5.848-5.844 15.36-5.848 21.207-.004l42.434 42.434c5.855 5.855 15.355 5.855 21.21 0s5.86-15.355 0-21.215l-63.64-63.64a14.99 14.99 0 0 1 0-21.211c5.867-5.863 15.352-5.863 21.215 0l63.64 63.637c5.855 5.86 15.355 5.86 21.21 0s5.86-15.352 0-21.21zm0 0"/></svg>