<svg xmlns="http://www.w3.org/2000/svg" viewBox="0 0 512 512"><path fill="#f4ff00" d="M325.382.086l-8.724 8.723L307.85 0 297.1 10.75l19.56 19.558 19.473-19.472zm158.548 184.15l-8.723 8.724-8.808-8.8-10.75 10.75 19.558 19.557 19.473-19.473zM45.603 327.953l-8.724 8.723-8.808-8.8-10.75 10.75 19.558 19.558 19.473-19.472zm270.553 153.825l-8.723 8.724-8.808-8.8-10.75 10.75L307.433 512l19.473-19.473zm-122.33-143.654l-8.723 8.723-8.8-8.808-10.748 10.747 19.558 19.56 19.473-19.472zm237.03 55.674l13.754-13.754-223.856-241.2c3.485-26.364-4.382-52.965-21.5-73.114l4.014-4.014-10.75-10.75-4.02 4.02c-16.947-14.446-38.235-22.343-60.75-22.343-25.065 0-48.63 9.762-66.355 27.486s-27.486 41.3-27.486 66.356c0 22.513 7.896 43.802 22.342 60.748l-4.02 4.02L63 201.993l4.028-4.028c17 14.44 38.6 22.322 60.796 22.322 4.092 0 8.205-.273 12.3-.816l241.208 223.852 13.755-13.755L437.4 471.88l35.77-35.77-42.316-42.313zM49.12 126.474c0-21.006 8.18-40.753 23.033-55.605s34.6-23.034 55.606-23.034c18.45 0 35.928 6.315 49.973 17.917L67.038 176.445c-11.602-14.044-17.917-31.52-17.917-49.97zm92.182 77.447a78.84 78.84 0 0 1-63.508-16.732l110.68-110.68c14.457 17.585 20.682 40.797 16.73 63.513-.696 4.003-1.7 7.914-2.97 11.7-3.838 11.384-10.243 21.722-18.87 30.35a78.11 78.11 0 0 1-42.058 21.84h-.004zm16.692 11.394c.996-.337 1.982-.696 2.964-1.065l.86-.332 2.223-.895.887-.373 2.738-1.227.197-.1a90.57 90.57 0 0 0 2.88-1.426l.805-.424 2.114-1.15.826-.465a92.19 92.19 0 0 0 2.64-1.571l.126-.075c.9-.567 1.8-1.152 2.7-1.75l.764-.523 1.97-1.386.768-.557c.846-.625 1.685-1.262 2.5-1.916.02-.016.04-.03.06-.047a93.83 93.83 0 0 0 2.498-2.062l.72-.623 1.805-1.6.707-.65c.795-.742 1.582-1.495 2.354-2.267a98.29 98.29 0 0 0 2.265-2.353l.654-.7 1.606-1.8.626-.723a95.6 95.6 0 0 0 2.06-2.495l.06-.08a92.49 92.49 0 0 0 1.9-2.491l.568-.78 1.373-1.95.534-.78a92.18 92.18 0 0 0 1.744-2.691l.097-.162a91.91 91.91 0 0 0 1.548-2.603l.475-.843 1.138-2.092.434-.824a93.23 93.23 0 0 0 1.421-2.87l.1-.218a89.39 89.39 0 0 0 1.218-2.719l.374-.9.896-2.227.33-.852 1.066-2.966 178.38 192.206-44.78 44.78-192.203-178.38zm226.34 203.505l-3.4 3.4-19.583-18.175 43.977-43.977 18.175 19.583-39.17 39.17zm21.5 0l14.272-14.272 31.564 31.565-14.272 14.27-31.564-31.564zM233.222 204.066l-27.87 27.87 52.556 52.556 27.87-27.87-52.556-52.556zm-6.37 27.868l6.37-6.37 31.057 31.058-6.37 6.37-31.057-31.058z"/></svg>