<svg xmlns="http://www.w3.org/2000/svg" viewBox="0 0 511.999 511.999"><path fill="#f4ff00" d="M376.73 203.828V39.335C376.73 17.646 359.084 0 337.396 0s-39.334 17.646-39.334 39.335v97.005c-5.715-3.24-12.3-5.1-19.335-5.1-11.65 0-22.126 5.094-29.335 13.166-7.2-8.07-17.688-13.165-29.336-13.165-7.023 0-13.618 1.86-19.332 5.1V84.05c0-21.7-17.645-39.335-39.335-39.335S122.055 62.36 122.055 84.05v219.6c0 38.08 16.418 73.65 43.52 98.588V502a10 10 0 0 0 10 10h139.902a10 10 0 0 0 10-10v-83.97c39.908-24.26 64.466-67.544 64.466-114.392V233.2c0-11.67-5.115-22.164-13.214-29.373zM318.062 39.335c0-10.66 8.674-19.335 19.334-19.335s19.334 8.674 19.334 19.335v155.013a39.45 39.45 0 0 0-6.119-.479h-32.55V39.335zm-58.67 131.277c0-.013.002-.025.002-.038s-.001-.017-.001-.025c.015-10.65 8.68-19.3 19.334-19.3 10.66 0 19.335 8.673 19.335 19.334v23.296h-19.337a39.07 39.07 0 0 0-19.333 5.1V170.61zm-58.668 39.085v-39.123a19.36 19.36 0 0 1 19.334-19.332c10.652 0 19.32 8.66 19.334 19.307v62.655c0 .026.002.05.002.077v29.887c0 10.66-8.676 19.333-19.338 19.333s-19.332-8.673-19.332-19.333v-53.47zm169.22 93.94c0 41.525-22.7 79.775-59.215 99.842-.02.01-.038.023-.058.033a10.19 10.19 0 0 0-.834.513c-.12.08-.228.17-.344.257-.142.106-.286.2-.422.323-.148.124-.286.256-.426.387-.094.088-.2.172-.28.264-.143.144-.273.295-.406.446-.08.092-.164.18-.24.277-.12.146-.228.3-.337.45-.082.113-.166.224-.244.34-.1.136-.17.275-.252.415s-.172.287-.25.435c-.063.12-.117.24-.174.36-.084.175-.168.35-.24.53-.045.107-.08.218-.12.327-.07.195-.144.4-.202.588-.035.117-.06.236-.092.354-.05.192-.1.383-.14.58-.032.165-.052.333-.076.5-.02.15-.05.298-.064.45a9.65 9.65 0 0 0-.046.9c0 .024-.004.047-.004.07v79.718H185.575v-17.573H226.6a10 10 0 1 0 0-20h-41.035v-37a133.66 133.66 0 0 0 24.717 12.071c1.133.415 2.293.6 3.434.6 4.078 0 7.9-2.515 9.393-6.568 1.896-5.187-.77-10.93-5.957-12.826-44.924-16.428-75.107-59.463-75.107-107.086V84.05c0-10.662 8.674-19.335 19.336-19.335a19.36 19.36 0 0 1 19.333 19.335v179.118c0 21.15 16.78 38.446 37.727 39.293a109.01 109.01 0 0 0-4.566 7.915 10 10 0 0 0 4.257 13.486c1.475.767 3.052 1.13 4.606 1.13a10 10 0 0 0 8.88-5.387c15.102-29.033 44.813-47.068 77.542-47.068h12.1a10 10 0 0 0 0-20h-42.554c-10.648 0-19.3-8.653-19.33-19.297v-.037c0-.007-.002-.014-.002-.02a19.36 19.36 0 0 1 19.333-19.313h71.886a19.13 19.13 0 0 1 10.447 3.1c.14.097.287.185.434.274 5.098 3.484 8.452 9.34 8.452 15.967v70.437zM215.394 332.1a10 10 0 0 0-11.755 7.862l-.05.257a10 10 0 0 0 7.952 11.694 10.1 10.1 0 0 0 1.883.18c4.705 0 8.898-3.338 9.8-8.13l.02-.106a10 10 0 0 0-7.862-11.755zm40.184 122.327h-.238c-5.522 0-10 4.477-10 10s4.478 10 10 10h.238c5.522 0 10-4.477 10-10a10 10 0 0 0-10-10z"/></svg>