<svg xmlns="http://www.w3.org/2000/svg" viewBox="0 0 512 512"><path  d="M107.466 40.56v430.88h69.455v-15.207h-54.247V55.766h266.652v400.468H197.2v15.207h207.334V40.56zM256 93.872c-31.04 0-56.293 25.252-56.293 56.292S224.96 206.456 256 206.456s56.292-25.252 56.292-56.292S287.04 93.872 256 93.872zm0 97.375c-22.655 0-41.085-18.43-41.085-41.084S233.346 109.08 256 109.08s41.084 18.43 41.084 41.084-18.43 41.084-41.084 41.084zm0 40.49c-51.4 0-93.196 41.808-93.196 93.196s41.808 93.196 93.196 93.196 93.196-41.808 93.196-93.196S307.4 231.736 256 231.736zm0 171.185c-43.003 0-77.988-34.985-77.988-77.988s34.985-77.988 77.988-77.988 77.988 34.985 77.988 77.988S299.003 402.92 256 402.92zm0-116.24c-21.094 0-38.255 17.16-38.255 38.254s17.16 38.253 38.255 38.253 38.255-17.16 38.255-38.253S277.094 286.68 256 286.68zm0 61.3c-12.708 0-23.047-10.337-23.047-23.045S243.293 301.89 256 301.89s23.047 10.338 23.047 23.046S268.707 347.98 256 347.98zM85.968 194.42l-10.754-10.753c-39.884 39.884-39.884 104.78 0 144.665l10.754-10.754c-33.954-33.954-33.954-89.203 0-123.158zm-32.046-32.045L43.17 151.622C15.332 179.46 0 216.528 0 256s15.332 76.54 43.17 104.378l10.753-10.755C2.298 297.998 2.298 214 53.922 162.375zm382.864 21.292l-10.753 10.753c33.954 33.955 33.954 89.204 0 123.158l10.753 10.754c39.884-39.884 39.884-104.78 0-144.665zm32.044-32.044l-10.753 10.753C483.042 187.34 496.79 220.59 496.79 256s-13.75 68.66-38.715 93.624l10.754 10.754C496.668 332.54 512 295.47 512 256s-15.332-76.538-43.17-104.376z"/></svg>