<svg xmlns="http://www.w3.org/2000/svg" viewBox="0 0 256 256"><path  fill="#f4ff00"  d="M179.16 81.1a2.5 2.5 0 0 1-2.5-2.5V64.416a2.5 2.5 0 1 1 5 0V78.6a2.5 2.5 0 0 1-2.5 2.5zm0 12.535a2.5 2.5 0 0 1-2.5-2.5v-1.67a2.5 2.5 0 1 1 5 0v1.67a2.5 2.5 0 0 1-2.5 2.5zm-99.236-30.57H58.896a1.12 1.12 0 0 0-1.119 1.119v1.953a1.12 1.12 0 0 0 1.119 1.119h8.23V91.52a1.12 1.12 0 0 0 1.119 1.119h2.3a1.12 1.12 0 0 0 1.119-1.119V67.255h8.25a1.12 1.12 0 0 0 1.119-1.119v-1.953a1.12 1.12 0 0 0-1.12-1.118zm21.896 1.318c-1.782-1.124-3.856-1.694-6.164-1.694s-4.388.58-6.18 1.726-3.2 2.796-4.16 4.906c-.946 2.06-1.426 4.443-1.426 7.086v2.816c0 4.138 1.083 7.494 3.218 9.976 2.178 2.532 5.066 3.816 8.583 3.816 2.32 0 4.406-.577 6.195-1.715s3.188-2.777 4.145-4.87c.932-2.042 1.405-4.428 1.405-7.093V76.05c-.04-2.6-.537-4.9-1.478-6.9-.964-2.038-2.357-3.642-4.14-4.766zM95.693 88.77c-2.238 0-3.954-.792-5.244-2.42-1.335-1.685-2-4.044-2-7.012V76.48c0-3.077.678-5.478 2.015-7.136 1.296-1.608 2.998-2.4 5.202-2.4 2.254 0 3.97.777 5.246 2.376 1.32 1.654 2 4.022 2 7.037v2.892c0 3.07-.66 5.47-1.96 7.13-1.252 1.6-2.966 2.38-5.24 2.38zm35.54-23.247c-1.85-1.63-4.363-2.458-7.47-2.458h-9.313a1.12 1.12 0 0 0-1.119 1.119V91.52a1.12 1.12 0 0 0 1.119 1.119h2.3a1.12 1.12 0 0 0 1.119-1.119V81.505h5.828c3.27 0 5.835-.8 7.62-2.373 1.828-1.6 2.754-3.892 2.754-6.782 0-2.863-.958-5.16-2.847-6.827zm-1.7 6.856c0 1.6-.457 2.777-1.397 3.628-.96.868-2.432 1.3-4.375 1.3h-5.884v-10.06h6.022c1.85.022 3.27.496 4.224 1.4s1.4 2.125 1.4 3.714z"/> <path fill="#f4ff00"  d="M215.192 83.468l-8.76-10.986 3.127-13.698c.294-1.288-.01-2.62-.834-3.652a4.3 4.3 0 0 0-3.375-1.626h-14.052l-8.76-10.985c-.824-1.033-2.054-1.626-3.375-1.626s-2.55.593-3.375 1.626l-8.76 10.985h-14.052a4.29 4.29 0 0 0-3.374 1.625 4.3 4.3 0 0 0-.835 3.653l3.127 13.698-8.76 10.986c-.824 1.033-1.128 2.364-.834 3.652s1.146 2.355 2.336 2.928l12.66 6.097 3.127 13.7c.294 1.288 1.146 2.354 2.336 2.928a4.29 4.29 0 0 0 3.746 0l12.66-6.096 12.66 6.097c.595.286 1.233.43 1.872.43s1.278-.144 1.874-.43c1.2-.573 2.042-1.64 2.336-2.928l3.127-13.7 12.66-6.096c1.2-.573 2.042-1.64 2.336-2.93a4.29 4.29 0 0 0-.835-3.652zm-16.628 8.315c-1.2.573-2.04 1.64-2.335 2.93l-3 13.185-12.184-5.867a4.29 4.29 0 0 0-3.747 0l-12.185 5.867-3-13.185a4.3 4.3 0 0 0-2.336-2.929l-12.184-5.868 8.432-10.574a4.3 4.3 0 0 0 .834-3.651l-3-13.185h13.524c1.32 0 2.55-.592 3.375-1.625l8.432-10.573 8.433 10.575a4.3 4.3 0 0 0 3.374 1.623H204.5l-3 13.185c-.294 1.288.01 2.62.833 3.652l8.432 10.573zm-139.637 46.58c2.27 1.577 5.185 1.948 7.808.988l5.774-2.145v44.87c0 4.686 3.813 8.5 8.5 8.5h5.22c4.687 0 8.5-3.814 8.5-8.5v-63.572a8.51 8.51 0 0 0-8.5-8.5h-.87a8.53 8.53 0 0 0-2.956.53L60.82 118.54a8.54 8.54 0 0 0-5.543 7.97v4.873a8.51 8.51 0 0 0 3.65 6.98zm1.35-11.853c0-1.456.917-2.774 2.282-3.28l21.58-8.004a3.53 3.53 0 0 1 1.222-.221h.87c1.93 0 3.5 1.57 3.5 3.5v63.572c0 1.93-1.57 3.5-3.5 3.5h-5.22c-1.93 0-3.5-1.57-3.5-3.5v-48.464a2.5 2.5 0 0 0-2.5-2.5 2.51 2.51 0 0 0-.87.156l-9.134 3.392a3.53 3.53 0 0 1-3.222-.401 3.51 3.51 0 0 1-1.506-2.876zm68.123 48.54c3.442 0 5.858-1.27 7.604-4 2.018-3.158 3.055-8.062 3.08-14.576v-12.17c0-6.54-1-11.442-3-14.567-1.17-1.84-3.114-3.95-7.774-3.95-3.567 0-5.94 1.2-7.7 3.858-1.992 3.038-3.028 7.805-3.08 14.186v12.396c0 6.5 1.05 11.454 3.125 14.7 1.804 2.82 4.262 4.132 7.735 4.132zm-5.86-31.198c.06-7.06 1.443-10.215 2.262-11.464.697-1.063 1.432-1.602 3.5-1.602 2.515 0 3.068.87 3.557 1.636.828 1.3 2.216 4.572 2.216 11.882v12.157c-.03 7.274-1.45 10.575-2.293 11.895-.734 1.148-1.43 1.693-3.392 1.693-1.805 0-2.628-.427-3.524-1.828-1.506-2.352-2.336-6.6-2.336-11.995v-12.374zm-15.4 37.318c4.94 6.723 12.3 10.276 21.253 10.276 9.137 0 16.546-3.64 21.425-10.526 4.3-6.07 6.482-14.57 6.482-25.257V143.93c-.14-10.4-2.438-18.664-6.827-24.534-4.913-6.572-12.232-10.047-21.167-10.047-9.078 0-16.472 3.597-21.383 10.402-4.358 6.038-6.567 14.52-6.567 25.208v11.44c.105 10.455 2.388 18.8 6.785 24.77zm3.836-58.492c3.932-5.448 9.924-8.328 17.33-8.328 7.296 0 13.23 2.78 17.163 8.04 3.74 5.004 5.703 12.27 5.83 21.592v11.68c0 9.632-1.87 17.156-5.562 22.366-3.9 5.507-9.9 8.417-17.345 8.417-7.308 0-13.264-2.85-17.224-8.237-3.764-5.12-5.72-12.476-5.814-21.835V144.96c0-9.617 1.9-17.114 5.62-22.283zm68.184-4.908a2.5 2.5 0 0 0-2.5 2.5v82.333a7.51 7.51 0 0 1-7.5 7.5H52.36a7.51 7.51 0 0 1-7.5-7.5V87.053a7.51 7.51 0 0 1 7.5-7.5 2.5 2.5 0 1 0 0-5c-6.893 0-12.5 5.607-12.5 12.5v115.55c0 6.893 5.607 12.5 12.5 12.5h116.8c6.893 0 12.5-5.607 12.5-12.5V120.27a2.5 2.5 0 0 0-2.5-2.501z" /></svg>